<?xml version="1.0" encoding="UTF-8" standalone="no"?>
<svg width="89px" height="50px" viewBox="0 0 89 50" version="1.1" xmlns="http://www.w3.org/2000/svg" xmlns:xlink="http://www.w3.org/1999/xlink" xmlns:sketch="http://www.bohemiancoding.com/sketch/ns">
    <!-- Generator: Sketch 3.3.2 (12043) - http://www.bohemiancoding.com/sketch -->
    <title>nydc copy</title>
    <desc>Created with Sketch.</desc>
    <defs>
        <linearGradient x1="0%" y1="0%" x2="100%" y2="100%" id="linearGradient-1">
            <stop stop-color="#FF5E72" offset="0%"></stop>
            <stop stop-color="#8E81CE" offset="100%"></stop>
        </linearGradient>
    </defs>
    <g id="Page-2" stroke="none" stroke-width="1" fill="none" fill-rule="evenodd" sketch:type="MSPage">
        <g id="nydc-copy" sketch:type="MSLayerGroup">
            <path d="M44,39 L44,45 L84,45 L84,5 L44,5 L44,9 L39,9 L39,39 L44,39 Z M89,0 L89,50 L39,50 L39,0 L89,0 Z" id="Path" fill="url(#linearGradient-1)" sketch:type="MSShapeGroup"></path>
            <path d="M45.8019567,22.9698747 L45.8019567,22.7816576 C45.0833093,22.7132149 44.3817725,22.3538912 44.3817725,20.8823751 L44.3817725,17.785347 L46.1612804,13.9525608 C47.0339237,12.070389 48.0947842,11.2490776 48.8134316,11.180635 L48.8134316,10.9924179 L44.4844365,10.9924179 L44.4844365,11.180635 C45.88751,11.5057374 46.3152763,12.4981553 45.3399691,14.6369869 L44.2277767,17.0666996 L42.1573877,12.8232577 C41.7125107,11.8992824 41.9862812,11.2490776 42.7049286,11.180635 L42.7049286,10.9924179 L36.6990895,10.9924179 L36.6990895,11.180635 C37.2466304,11.3688522 37.6230647,11.7966185 38.2561589,13.0285855 L40.7372035,17.8709002 L40.7372035,20.8823751 C40.7372035,22.3538912 40.0356668,22.7132149 39.3170193,22.7816576 L39.3170193,22.9698747 L45.8019567,22.9698747 L45.8019567,22.9698747 Z M51.7222425,23.2949771 C54.2888404,23.2949771 56.2052335,21.2416988 56.2052335,19.0344246 C56.2052335,16.6902652 54.3915044,14.7738721 51.7222425,14.7738721 C49.2754192,14.7738721 47.2392515,16.7415972 47.2392515,19.0686459 C47.2392515,21.4128053 49.138534,23.2949771 51.7222425,23.2949771 L51.7222425,23.2949771 Z M50.5244969,18.9830927 C50.5244969,15.9202858 51.0891484,15.1160852 51.6537999,15.1160852 C52.44089,15.1160852 52.8857669,16.4678267 52.8857669,19.0686459 C52.8857669,22.217006 52.2868941,22.9698747 51.7222425,22.9698747 C50.9693738,22.9698747 50.5244969,21.5668012 50.5244969,18.9830927 L50.5244969,18.9830927 Z M61.9715235,22.8158789 C61.5608678,22.7645469 61.0475483,22.4907765 61.0475483,21.7379077 L61.0475483,17.4602446 C61.1673228,16.8271504 61.3384294,16.4849374 61.7661957,16.4849374 C62.3992898,16.4849374 62.6217283,17.2720274 63.4772609,17.2720274 C64.264351,17.2720274 64.8461132,16.6218226 64.8461132,15.8347326 C64.8461132,15.0989745 64.3327936,14.5001017 63.4943716,14.5001017 C62.6217283,14.5001017 61.5437572,15.0989745 61.013327,16.6560439 L61.013327,14.8423147 L60.8764417,14.7909828 L56.7527744,15.9031752 L56.7527744,16.0742817 C57.2318727,16.0400604 57.7965242,16.2453882 57.7965242,17.1864741 L57.7965242,21.7036864 C57.7965242,22.4736658 57.3516473,22.7645469 56.923881,22.8158789 L56.923881,22.9698747 L61.9715235,22.9698747 L61.9715235,22.8158789 L61.9715235,22.8158789 Z M69.140887,10.051332 L69.0040018,10 L64.9487771,10.9924179 L64.9487771,11.180635 C65.4278753,11.1635244 65.8727523,11.3688522 65.8727523,12.3099381 L65.8727523,21.7036864 C65.8727523,22.4736658 65.496318,22.7645469 65.1198836,22.8158789 L65.1198836,22.9698747 L70.0477516,22.9698747 L70.0477516,22.8158789 C69.6713172,22.7645469 69.140887,22.5421084 69.140887,21.7036864 L69.140887,10.051332 L69.140887,10.051332 Z M75.694267,22.9698747 L75.694267,22.7987682 C75.3349433,22.7132149 74.7874024,22.1656741 74.0003123,20.8310432 L72.0325873,17.4089126 C73.4014395,15.9887284 74.410968,15.3556343 75.3178326,15.270081 L75.3178326,15.0818638 L71.108612,15.0818638 L71.108612,15.270081 C71.947034,15.3385236 72.443243,16.3822735 71.211276,17.6142404 L69.5515426,19.2910844 L69.5515426,19.3766377 L71.553489,22.9698747 L75.694267,22.9698747 L75.694267,22.9698747 Z M11.3614734,23.1923132 L11.4128053,14.7909828 C11.429916,12.3099381 12.1314528,11.2661883 13.2949771,11.180635 L13.2949771,10.9924179 L8.72643287,10.9924179 L8.72643287,11.180635 C9.92417856,11.3175203 10.8481538,12.3441594 10.8823751,14.7909828 L10.9165964,17.6997937 L5.20163842,10.9924179 L0.0513319581,10.9924179 L0.0513319581,11.180635 C1.53995874,11.3688522 2.07038898,12.6008192 2.05327832,14.1921099 L2.01905702,19.0857566 C2.00194636,21.6352438 1.09508177,22.7303256 0,22.7816576 L0,22.9698747 L4.87653602,22.9698747 L4.87653602,22.7816576 C3.74723294,22.7132149 2.54948725,21.6181332 2.54948725,18.5895476 L2.5323766,13.6616797 L10.6257153,23.1923132 L11.3614734,23.1923132 L11.3614734,23.1923132 Z M21.5080904,20.146617 L21.23432,20.0781744 C20.7723324,20.9508177 20.0194636,21.429916 19.1468204,21.429916 C17.8635214,21.429916 16.9053249,20.5230514 16.7684396,18.5382157 L21.5080904,18.5382157 C21.4054265,16.1256137 19.9852423,14.7738721 17.8464108,14.7738721 C15.4851407,14.7738721 13.5516369,16.7415972 13.5516369,19.1884205 C13.5516369,21.5668012 15.4338087,23.2949771 17.6239723,23.2949771 C19.5232547,23.2949771 21.0461028,22.0458995 21.5080904,20.146617 L21.5080904,20.146617 L21.5080904,20.146617 Z M16.751329,18.0077855 C16.751329,16.1427243 17.4015338,15.0818638 17.931964,15.0818638 C18.4281729,15.0818638 18.7532753,15.9373965 18.6506114,18.1446707 L16.751329,18.1446707 L16.751329,18.0077855 L16.751329,18.0077855 Z M30.4227405,23.0896493 L31.5520436,23.0896493 L33.7593178,17.9393428 C34.631961,15.9202858 35.2650552,15.3385236 35.8297067,15.270081 L35.8297067,15.0818638 L32.4589081,15.0818638 L32.4589081,15.270081 C33.0406703,15.3043023 33.896203,16.4849374 32.9893384,18.7093222 L32.5102401,19.8728466 L31.2953838,16.2453882 C31.1242772,15.7320687 31.2611625,15.3556343 31.4836009,15.270081 L31.4836009,15.0818638 L27.0348312,15.0818638 L27.0348312,15.270081 C27.3770443,15.3727449 27.6679254,15.714958 27.9416958,16.4678267 L28.3523515,17.5800191 L27.4283763,19.9241786 L26.0081921,16.502048 C25.7686429,15.8689539 25.7002003,15.3556343 26.1964093,15.270081 L26.1964093,15.0818638 L21.576533,15.0818638 L21.576533,15.270081 C21.9871887,15.4240769 22.2951805,15.76629 22.8085,16.9811463 L25.4093192,23.0896493 L26.555733,23.0896493 L28.57479,18.1446707 L30.4227405,23.0896493 L30.4227405,23.0896493 Z M0,37.1280714 L6.34805215,37.1280714 C9.70174007,37.1280714 12.9527641,34.6641375 12.9527641,31.1564537 C12.9527641,27.939651 10.197949,25.1506146 6.12561366,25.1506146 L0,25.1506146 L0,25.3388317 C0.667315455,25.4072744 1.3004096,25.7494874 1.3004096,27.2038929 L1.3004096,35.0405718 C1.3004096,36.4949773 0.667315455,36.8714117 0,36.9398543 L0,37.1280714 L0,37.1280714 Z M20.344566,37.4360632 C21.5252011,37.4360632 22.5347296,36.8371904 22.9796066,35.9987684 L22.7913894,35.8618831 C22.6031722,36.1185429 22.3636231,36.2383175 22.1582952,36.2383175 C21.8845248,36.2383175 21.6963076,36.0329897 21.6963076,35.7592192 L21.6963076,31.7039945 C21.6963076,30.0784825 20.4301193,28.9320688 17.8977427,28.9320688 C15.4851407,28.9320688 14.3900589,29.7533801 14.3900589,30.79713 C14.3900589,31.5157774 14.9375998,31.9948756 15.6391366,31.9948756 C16.1866774,31.9948756 16.7342183,31.7211052 17.0079888,31.1051217 C17.4015338,30.2495891 16.9737675,29.2229499 17.7608575,29.2229499 C18.2057345,29.2229499 18.4110623,29.4796097 18.4110623,30.3693636 L18.4110623,32.3541993 C14.8691572,33.2268426 13.9109606,34.3732564 13.9109606,35.6052234 C13.9109606,36.8200797 14.9204891,37.4531738 15.9471283,37.4531738 C16.8368822,37.4531738 17.8635214,37.0254075 18.5650582,36.3067601 C18.8388286,37.0938501 19.4548121,37.4360632 20.344566,37.4360632 L20.344566,37.4360632 Z M17.8635214,36.1185429 C17.2988699,36.1185429 16.7855503,35.7078873 16.7855503,34.8010227 C16.7855503,33.8770474 17.2304273,33.0728468 18.4110623,32.6621911 L18.4110623,35.177457 C18.4110623,35.4512275 18.4281729,35.7078873 18.4795049,35.9303258 C18.2741771,36.067211 18.0859599,36.1185429 17.8635214,36.1185429 L17.8635214,36.1185429 Z M28.9854457,29.6336056 L28.9854457,29.2400606 L27.2743804,29.2400606 L27.2743804,25.6126022 L27.0177206,25.6126022 C26.4017371,27.2210035 24.6051186,29.0518434 23.1507131,29.4796097 L23.1507131,29.6678269 L24.0233564,29.6678269 L24.0233564,35.3656742 C24.0233564,36.5805306 24.8617784,37.4189525 26.1279667,37.4189525 C27.4797082,37.4189525 28.6603433,36.4436453 29.2763267,35.280121 L29.0538883,35.1432357 C28.7972285,35.5196701 28.4892367,35.6907766 28.129913,35.6907766 C27.685036,35.6907766 27.2743804,35.2972316 27.2743804,34.5443629 L27.2743804,29.6336056 L28.9854457,29.6336056 L28.9854457,29.6336056 Z M36.0692559,37.4360632 C37.2498909,37.4360632 38.2594194,36.8371904 38.7042964,35.9987684 L38.5160792,35.8618831 C38.327862,36.1185429 38.0883129,36.2383175 37.8829851,36.2383175 C37.6092146,36.2383175 37.4209974,36.0329897 37.4209974,35.7592192 L37.4209974,31.7039945 C37.4209974,30.0784825 36.1548091,28.9320688 33.6224325,28.9320688 C31.2098305,28.9320688 30.1147487,29.7533801 30.1147487,30.79713 C30.1147487,31.5157774 30.6622896,31.9948756 31.3638264,31.9948756 C31.9113673,31.9948756 32.4589081,31.7211052 32.7326786,31.1051217 C33.1262236,30.2495891 32.6984573,29.2229499 33.4855473,29.2229499 C33.9304243,29.2229499 34.1357521,29.4796097 34.1357521,30.3693636 L34.1357521,32.3541993 C30.593847,33.2268426 29.6356505,34.3732564 29.6356505,35.6052234 C29.6356505,36.8200797 30.645179,37.4531738 31.6718181,37.4531738 C32.5615721,37.4531738 33.5882112,37.0254075 34.289748,36.3067601 C34.5635184,37.0938501 35.1795019,37.4360632 36.0692559,37.4360632 L36.0692559,37.4360632 Z M5.61229408,25.5441596 C7.23780609,25.5441596 8.98309266,27.3749994 8.98309266,31.3617815 C8.98309266,34.9550186 7.73401501,36.7345264 5.61229408,36.7345264 L4.96208928,36.7345264 L4.96208928,25.5441596 L5.61229408,25.5441596 L5.61229408,25.5441596 Z M33.5882112,36.1185429 C33.0235597,36.1185429 32.5102401,35.7078873 32.5102401,34.8010227 C32.5102401,33.8770474 32.9551171,33.0728468 34.1357521,32.6621911 L34.1357521,35.177457 C34.1357521,35.4512275 34.1528628,35.7078873 34.2041947,35.9303258 C33.9988669,36.067211 33.8106497,36.1185429 33.5882112,36.1185429 L33.5882112,36.1185429 Z M51.5893443,29.9210557 L52.4790983,26.3791506 C51.5380124,25.9342736 50.0836069,25.6605032 48.4752055,25.6605032 C44.1462104,25.6605032 41.3400634,28.4837609 41.3400634,32.1967725 C41.3400634,35.4820178 43.8382187,38.3394968 47.3972344,38.3394968 C49.6558406,38.3394968 51.7091189,37.0390872 52.4106557,34.5922639 L52.1026639,34.4896 C51.5209017,35.7557883 50.374488,36.4059931 48.9714145,36.4059931 C46.7641403,36.4059931 45.0701857,34.7633704 45.0701857,31.1701333 C45.0701857,28.2271011 46.4048166,26.1224908 48.0816605,26.1224908 C49.2965169,26.1224908 50.7509224,27.2004619 51.2471313,29.8868344 L51.5893443,29.9210557 L51.5893443,29.9210557 Z M58.1769456,38.3223862 C60.7435435,38.3223862 62.6599366,36.2691078 62.6599366,34.0618336 C62.6599366,31.7176742 60.8462074,29.8012811 58.1769456,29.8012811 C55.7301223,29.8012811 53.6939546,31.7690062 53.6939546,34.096055 C53.6939546,36.4402144 55.5932371,38.3223862 58.1769456,38.3223862 L58.1769456,38.3223862 Z M56.9791999,34.0105017 C56.9791999,30.9476949 57.5438515,30.1434942 58.108503,30.1434942 C58.895593,30.1434942 59.34047,31.4952357 59.34047,34.096055 C59.34047,37.244415 58.7415972,37.9972838 58.1769456,37.9972838 C57.4240769,37.9972838 56.9791999,36.5942102 56.9791999,34.0105017 L56.9791999,34.0105017 Z" id="NYDC" fill="#333333" sketch:type="MSShapeGroup"></path>
        </g>
    </g>
</svg>