<?xml version="1.0" encoding="UTF-8" standalone="no"?>
<svg width="222px" height="50px" viewBox="0 0 222 50" version="1.1" xmlns="http://www.w3.org/2000/svg" xmlns:xlink="http://www.w3.org/1999/xlink">
    <defs>
        <linearGradient x1="0%" y1="0%" x2="100%" y2="100%" id="linearGradient-1">
            <stop stop-color="#FF5E72" offset="0%"></stop>
            <stop stop-color="#8E81CE" offset="100%"></stop>
        </linearGradient>
    </defs>
    <g id="Page-2" stroke="none" stroke-width="1" fill="none" fill-rule="evenodd">
        <g id="nydc">
            <path d="M177,39 L177,45 L217,45 L217,5 L177,5 L177,9 L172,9 L172,39 L177,39 Z M222,0 L222,50 L172,50 L172,0 L222,0 Z" id="block" fill="url(#linearGradient-1)"></path>
            <path d="M11.3156101,28.1390593 L11.3667348,19.7716428 C11.3837764,17.3006135 12.0824813,16.261077 13.2413088,16.1758691 L13.2413088,15.9884117 L8.69120654,15.9884117 L8.69120654,16.1758691 C9.88411725,16.3122018 10.8043626,17.3346967 10.8384458,19.7716428 L10.872529,22.6687117 L5.18064076,15.9884117 L0.0511247444,15.9884117 L0.0511247444,16.1758691 C1.53374233,16.3633265 2.06203136,17.5903204 2.04498978,19.1751875 L2.01090661,24.0490798 C1.99386503,26.5882754 1.09066121,27.6789366 0,27.7300613 L0,27.9175187 L4.85685072,27.9175187 L4.85685072,27.7300613 C3.73210634,27.661895 2.53919564,26.5712338 2.53919564,23.5548739 L2.52215406,18.6468984 L10.5828221,28.1390593 L11.3156101,28.1390593 Z M21.4212679,25.1056578 L21.1486026,25.0374915 C20.6884799,25.9066121 19.9386503,26.3837764 19.0695297,26.3837764 C17.791411,26.3837764 16.8370825,25.4805726 16.7007498,23.5037491 L21.4212679,23.5037491 C21.3190184,21.1008862 19.9045671,19.7546012 17.7743695,19.7546012 C15.4226312,19.7546012 13.4969325,21.7143831 13.4969325,24.1513292 C13.4969325,26.5201091 15.3715065,28.2413088 17.5528289,28.2413088 C19.4444444,28.2413088 20.9611452,26.9972733 21.4212679,25.1056578 L21.4212679,25.1056578 Z M16.6837082,22.9754601 C16.6837082,21.1179277 17.3312883,20.0613497 17.8595774,20.0613497 C18.3537832,20.0613497 18.6775733,20.9134288 18.5753238,23.1117928 L16.6837082,23.1117928 L16.6837082,22.9754601 Z M30.2999318,28.0368098 L31.4246762,28.0368098 L33.6230402,22.9072938 C34.4921609,20.8963872 35.1226994,20.3169734 35.6850716,20.2488071 L35.6850716,20.0613497 L32.32788,20.0613497 L32.32788,20.2488071 C32.9072938,20.2828903 33.7593729,21.4587594 32.8561691,23.674165 L32.3790048,24.8329925 L31.1690525,21.2201772 C30.9986367,20.7089298 31.1349693,20.334015 31.3565099,20.2488071 L31.3565099,20.0613497 L26.9256987,20.0613497 L26.9256987,20.2488071 C27.2665303,20.3510566 27.5562372,20.6918882 27.8289025,21.4417178 L28.2379005,22.5494206 L27.3176551,24.8841172 L25.9032038,21.475801 C25.6646217,20.8452624 25.5964554,20.334015 26.0906612,20.2488071 L26.0906612,20.0613497 L21.4894342,20.0613497 L21.4894342,20.2488071 C21.8984322,20.4021813 22.2051806,20.743013 22.7164281,21.9529652 L25.3067485,28.0368098 L26.4485344,28.0368098 L28.459441,23.1117928 L30.2999318,28.0368098 Z M48.3469666,27.9175187 L48.3469666,27.7300613 C47.6312202,27.661895 46.9325153,27.3040218 46.9325153,25.8384458 L46.9325153,22.7539196 L48.7048398,18.9366053 C49.5739605,17.0620314 50.6305385,16.2440354 51.3462849,16.1758691 L51.3462849,15.9884117 L47.0347648,15.9884117 L47.0347648,16.1758691 C48.4321745,16.4996592 48.858214,17.4880709 47.8868439,19.6182686 L46.7791411,22.0381731 L44.7171097,17.8118609 C44.2740286,16.8916155 44.5466939,16.2440354 45.2624404,16.1758691 L45.2624404,15.9884117 L39.2808453,15.9884117 L39.2808453,16.1758691 C39.8261759,16.3633265 40.2010907,16.7893661 40.8316292,18.0163599 L43.3026585,22.8391275 L43.3026585,25.8384458 C43.3026585,27.3040218 42.6039536,27.661895 41.8882072,27.7300613 L41.8882072,27.9175187 L48.3469666,27.9175187 Z M54.2433538,28.2413088 C56.799591,28.2413088 58.7082481,26.196319 58.7082481,23.997955 C58.7082481,21.6632584 56.9018405,19.7546012 54.2433538,19.7546012 C51.8064076,19.7546012 49.7784594,21.7143831 49.7784594,24.0320382 C49.7784594,26.3667348 51.670075,28.2413088 54.2433538,28.2413088 L54.2433538,28.2413088 Z M53.0504431,23.9468303 C53.0504431,20.8963872 53.6128153,20.0954329 54.1751875,20.0954329 C54.9591002,20.0954329 55.4021813,21.4417178 55.4021813,24.0320382 C55.4021813,27.1676892 54.805726,27.9175187 54.2433538,27.9175187 C53.4935242,27.9175187 53.0504431,26.5201091 53.0504431,23.9468303 L53.0504431,23.9468303 Z M64.4512611,27.7641445 C64.0422631,27.7130198 63.5310157,27.4403545 63.5310157,26.6905249 L63.5310157,22.4301295 C63.6503067,21.799591 63.8207226,21.4587594 64.2467621,21.4587594 C64.8773006,21.4587594 65.0988412,22.2426721 65.9509202,22.2426721 C66.734833,22.2426721 67.3142468,21.595092 67.3142468,20.8111793 C67.3142468,20.0783913 66.8029993,19.4819359 65.9679618,19.4819359 C65.0988412,19.4819359 64.0252215,20.0783913 63.4969325,21.6291752 L63.4969325,19.8227676 L63.3605999,19.7716428 L59.2535787,20.8793456 L59.2535787,21.0497614 C59.730743,21.0156783 60.2931152,21.2201772 60.2931152,22.1574642 L60.2931152,26.6564417 C60.2931152,27.4233129 59.8500341,27.7130198 59.4239945,27.7641445 L59.4239945,27.9175187 L64.4512611,27.9175187 L64.4512611,27.7641445 Z M71.5916837,15.0511247 L71.4553511,15 L67.4164963,15.9884117 L67.4164963,16.1758691 C67.8936605,16.1588275 68.3367416,16.3633265 68.3367416,17.3006135 L68.3367416,26.6564417 C68.3367416,27.4233129 67.9618269,27.7130198 67.5869121,27.7641445 L67.5869121,27.9175187 L72.4948875,27.9175187 L72.4948875,27.7641445 C72.1199727,27.7130198 71.5916837,27.4914792 71.5916837,26.6564417 L71.5916837,15.0511247 Z M78.1186094,27.9175187 L78.1186094,27.7471029 C77.7607362,27.661895 77.2154056,27.1165644 76.4314928,25.7873211 L74.471711,22.3790048 C75.8350375,20.9645535 76.8404908,20.334015 77.7436946,20.2488071 L77.7436946,20.0613497 L73.5514656,20.0613497 L73.5514656,20.2488071 C74.3865031,20.3169734 74.8807089,21.3565099 73.6537151,22.5835037 L72.0006817,24.2535787 L72.0006817,24.3387866 L73.9945467,27.9175187 L78.1186094,27.9175187 Z M81.7314247,27.9175187 L88.0538514,27.9175187 C91.3940014,27.9175187 94.6319018,25.463531 94.6319018,21.9700068 C94.6319018,18.7661895 91.8882072,15.9884117 87.8323108,15.9884117 L81.7314247,15.9884117 L81.7314247,16.1758691 C82.3960464,16.2440354 83.0265849,16.5848671 83.0265849,18.0334015 L83.0265849,25.8384458 C83.0265849,27.2869802 82.3960464,27.661895 81.7314247,27.7300613 L81.7314247,27.9175187 Z M87.3210634,16.3803681 C88.9400136,16.3803681 90.6782549,18.2038173 90.6782549,22.1745058 C90.6782549,25.7532379 89.4342195,27.5255624 87.3210634,27.5255624 L86.6734833,27.5255624 L86.6734833,16.3803681 L87.3210634,16.3803681 Z M99.5228357,26.9120654 C98.9604635,26.9120654 98.4492161,26.5030675 98.4492161,25.5998637 C98.4492161,24.6796183 98.8922972,23.8786639 100.068166,23.469666 L100.068166,25.9747785 C100.068166,26.2474438 100.085208,26.5030675 100.136333,26.724608 C99.9318337,26.8609407 99.7443763,26.9120654 99.5228357,26.9120654 L99.5228357,26.9120654 Z M101.993865,28.2242672 C103.169734,28.2242672 104.175187,27.6278119 104.618269,26.7927744 L104.430811,26.6564417 C104.243354,26.9120654 104.004772,27.0313565 103.800273,27.0313565 C103.527607,27.0313565 103.34015,26.8268575 103.34015,26.5541922 L103.34015,22.5153374 C103.34015,20.8963872 102.079073,19.7546012 99.5569189,19.7546012 C97.1540559,19.7546012 96.0633947,20.5725971 96.0633947,21.6121336 C96.0633947,22.32788 96.6087253,22.8050443 97.3074301,22.8050443 C97.8527607,22.8050443 98.3980913,22.532379 98.6707566,21.9188821 C99.062713,21.066803 98.6366735,20.0443081 99.4205862,20.0443081 C99.8636673,20.0443081 100.068166,20.2999318 100.068166,21.1860941 L100.068166,23.1629175 C96.540559,24.0320382 95.5862304,25.1738241 95.5862304,26.400818 C95.5862304,27.6107703 96.5916837,28.2413088 97.6141786,28.2413088 C98.5003408,28.2413088 99.5228357,27.8152693 100.221541,27.0995228 C100.494206,27.8834356 101.107703,28.2242672 101.993865,28.2242672 L101.993865,28.2242672 Z M110.599864,20.4533061 L110.599864,20.0613497 L108.895706,20.0613497 L108.895706,16.4485344 L108.640082,16.4485344 C108.026585,18.0504431 106.237219,19.8738923 104.788684,20.2999318 L104.788684,20.4873892 L105.657805,20.4873892 L105.657805,26.1622359 C105.657805,27.3721881 106.492843,28.2072256 107.75392,28.2072256 C109.100204,28.2072256 110.276074,27.2358555 110.889571,26.0770279 L110.66803,25.9406953 C110.412406,26.3156101 110.105658,26.4860259 109.747785,26.4860259 C109.304703,26.4860259 108.895706,26.0940695 108.895706,25.3442399 L108.895706,20.4533061 L110.599864,20.4533061 Z M115.184049,26.9120654 C114.621677,26.9120654 114.110429,26.5030675 114.110429,25.5998637 C114.110429,24.6796183 114.553511,23.8786639 115.72938,23.469666 L115.72938,25.9747785 C115.72938,26.2474438 115.746421,26.5030675 115.797546,26.724608 C115.593047,26.8609407 115.40559,26.9120654 115.184049,26.9120654 L115.184049,26.9120654 Z M117.655078,28.2242672 C118.830948,28.2242672 119.836401,27.6278119 120.279482,26.7927744 L120.092025,26.6564417 C119.904567,26.9120654 119.665985,27.0313565 119.461486,27.0313565 C119.188821,27.0313565 119.001363,26.8268575 119.001363,26.5541922 L119.001363,22.5153374 C119.001363,20.8963872 117.740286,19.7546012 115.218132,19.7546012 C112.815269,19.7546012 111.724608,20.5725971 111.724608,21.6121336 C111.724608,22.32788 112.269939,22.8050443 112.968643,22.8050443 C113.513974,22.8050443 114.059305,22.532379 114.33197,21.9188821 C114.723926,21.066803 114.297887,20.0443081 115.0818,20.0443081 C115.524881,20.0443081 115.72938,20.2999318 115.72938,21.1860941 L115.72938,23.1629175 C112.201772,24.0320382 111.247444,25.1738241 111.247444,26.400818 C111.247444,27.6107703 112.252897,28.2413088 113.275392,28.2413088 C114.161554,28.2413088 115.184049,27.8152693 115.882754,27.0995228 C116.155419,27.8834356 116.768916,28.2242672 117.655078,28.2242672 L117.655078,28.2242672 Z M134.253579,19.8738923 L135.139741,16.3462849 C134.202454,15.9032038 132.75392,15.6305385 131.152011,15.6305385 C126.840491,15.6305385 124.045671,18.4423995 124.045671,22.1404226 C124.045671,25.4124063 126.533742,28.2583504 130.078391,28.2583504 C132.32788,28.2583504 134.37287,26.9631902 135.071575,24.526244 L134.764826,24.4239945 C134.185412,25.6850716 133.043626,26.3326517 131.646217,26.3326517 C129.447853,26.3326517 127.760736,24.6966599 127.760736,21.1179277 C127.760736,18.1867757 129.08998,16.0906612 130.760055,16.0906612 C131.970007,16.0906612 133.418541,17.1642808 133.912747,19.8398091 L134.253579,19.8738923 Z M140.814588,28.2413088 C143.370825,28.2413088 145.279482,26.196319 145.279482,23.997955 C145.279482,21.6632584 143.473074,19.7546012 140.814588,19.7546012 C138.377641,19.7546012 136.349693,21.7143831 136.349693,24.0320382 C136.349693,26.3667348 138.241309,28.2413088 140.814588,28.2413088 L140.814588,28.2413088 Z M139.621677,23.9468303 C139.621677,20.8963872 140.184049,20.0954329 140.746421,20.0954329 C141.530334,20.0954329 141.973415,21.4417178 141.973415,24.0320382 C141.973415,27.1676892 141.37696,27.9175187 140.814588,27.9175187 C140.064758,27.9175187 139.621677,26.5201091 139.621677,23.9468303 L139.621677,23.9468303 Z M150.613497,27.7641445 C150.32379,27.6959782 150.102249,27.4744376 150.102249,26.6734833 L150.102249,21.5610089 C150.374915,21.3394683 150.664622,21.2031357 150.97137,21.2031357 C151.431493,21.2031357 151.789366,21.5269257 151.789366,22.1745058 L151.789366,26.6734833 C151.789366,27.5085208 151.61895,27.6959782 151.226994,27.7641445 L151.226994,27.9175187 L155.555556,27.9175187 L155.555556,27.7641445 C155.265849,27.6959782 155.044308,27.4744376 155.044308,26.6734833 L155.044308,22.0211316 C155.044308,21.8847989 155.044308,21.7655078 155.027267,21.6462168 C155.316973,21.3735515 155.623722,21.2031357 155.947512,21.2031357 C156.390593,21.2031357 156.731425,21.5269257 156.731425,22.1745058 L156.731425,26.6734833 C156.731425,27.4744376 156.57805,27.7130198 156.220177,27.7641445 L156.220177,27.9175187 L160.770279,27.9175187 L160.770279,27.7471029 C160.34424,27.6959782 159.986367,27.3892297 159.986367,26.6394001 L159.986367,22.0211316 C159.986367,20.5214724 159.032038,19.7546012 157.736878,19.7546012 C156.697342,19.7546012 155.811179,20.2317655 154.942059,21.271302 C154.686435,20.2658487 153.851397,19.7546012 152.794819,19.7546012 C151.704158,19.7546012 150.852079,20.3169734 150.068166,21.2031357 L150.068166,19.8227676 L149.931834,19.7716428 L145.824813,20.8793456 L145.824813,21.0497614 C146.284935,21.0156783 146.864349,21.2201772 146.864349,22.1574642 L146.864349,26.6394001 C146.864349,27.3892297 146.455351,27.6959782 146.063395,27.7471029 L146.063395,27.9175187 L150.613497,27.9175187 L150.613497,27.7641445 Z M166.05317,27.9175187 C165.72938,27.9175187 165.490798,27.6278119 165.439673,27.2188139 L165.439673,21.4246762 C165.593047,21.3565099 165.746421,21.3394683 165.899796,21.3394683 C166.837082,21.3394683 167.416496,22.2256305 167.416496,24.1513292 C167.416496,26.6734833 166.70075,27.9175187 166.05317,27.9175187 L166.05317,27.9175187 Z M166.291752,31.6325835 C165.882754,31.5814588 165.439673,31.2747103 165.439673,30.5248807 L165.439673,28.1731425 C165.593047,28.2242672 165.780504,28.2413088 165.967962,28.2413088 C168.268575,28.2413088 170.68848,26.2133606 170.68848,23.3162918 C170.68848,21.6802999 169.921609,19.7546012 167.791411,19.7546012 C166.768916,19.7546012 166.002045,20.2658487 165.40559,20.9304703 L165.40559,19.8227676 L165.269257,19.7716428 L161.145194,20.8793456 L161.145194,21.0497614 C161.656442,21.0497614 162.184731,21.2201772 162.184731,22.1574642 L162.184731,30.5248807 C162.184731,31.2747103 161.74165,31.5814588 161.31561,31.6325835 L161.31561,31.8029993 L166.291752,31.8029993 L166.291752,31.6325835 Z M175.374915,26.9120654 C174.812543,26.9120654 174.301295,26.5030675 174.301295,25.5998637 C174.301295,24.6796183 174.744376,23.8786639 175.920245,23.469666 L175.920245,25.9747785 C175.920245,26.2474438 175.937287,26.5030675 175.988412,26.724608 C175.783913,26.8609407 175.596455,26.9120654 175.374915,26.9120654 L175.374915,26.9120654 Z M177.845944,28.2242672 C179.021813,28.2242672 180.027267,27.6278119 180.470348,26.7927744 L180.28289,26.6564417 C180.095433,26.9120654 179.856851,27.0313565 179.652352,27.0313565 C179.379686,27.0313565 179.192229,26.8268575 179.192229,26.5541922 L179.192229,22.5153374 C179.192229,20.8963872 177.931152,19.7546012 175.408998,19.7546012 C173.006135,19.7546012 171.915474,20.5725971 171.915474,21.6121336 C171.915474,22.32788 172.460804,22.8050443 173.159509,22.8050443 C173.70484,22.8050443 174.25017,22.532379 174.522836,21.9188821 C174.914792,21.066803 174.488753,20.0443081 175.272665,20.0443081 C175.715746,20.0443081 175.920245,20.2999318 175.920245,21.1860941 L175.920245,23.1629175 C172.392638,24.0320382 171.438309,25.1738241 171.438309,26.400818 C171.438309,27.6107703 172.443763,28.2413088 173.466258,28.2413088 C174.35242,28.2413088 175.374915,27.8152693 176.07362,27.0995228 C176.346285,27.8834356 176.959782,28.2242672 177.845944,28.2242672 L177.845944,28.2242672 Z M185.446489,27.7641445 C185.071575,27.7130198 184.815951,27.4744376 184.815951,26.6734833 L184.815951,21.6291752 C185.122699,21.3565099 185.429448,21.2031357 185.770279,21.2031357 C186.264485,21.2031357 186.6394,21.5269257 186.6394,22.1745058 L186.6394,26.6734833 C186.6394,27.4744376 186.468984,27.7130198 185.99182,27.7641445 L185.99182,27.9175187 L190.712338,27.9175187 L190.712338,27.7471029 C190.269257,27.6959782 189.894342,27.3892297 189.894342,26.6394001 L189.894342,22.0211316 C189.894342,20.5214724 188.957055,19.7546012 187.678937,19.7546012 C186.588275,19.7546012 185.565781,20.3680982 184.781868,21.2372188 L184.781868,19.8227676 L184.645535,19.7716428 L180.538514,20.8793456 L180.538514,21.0497614 C180.998637,21.0156783 181.57805,21.2201772 181.57805,22.1574642 L181.57805,26.6394001 C181.57805,27.3892297 181.152011,27.6959782 180.743013,27.7471029 L180.743013,27.9175187 L185.446489,27.9175187 L185.446489,27.7641445 Z M191.394001,32.1949557 C192.638037,32.1949557 193.899114,31.3940014 194.648943,29.7580095 L197.682345,23.4014997 C198.824131,20.8963872 199.335378,20.4362645 200,20.2317655 L200,20.0613497 L196.693933,20.0613497 L196.693933,20.2317655 C197.699387,20.3169734 197.972052,21.6802999 197.137014,23.5037491 L196.591684,24.6625767 L195.483981,22.123381 C194.93865,20.8963872 195.160191,20.2658487 195.739605,20.2317655 L195.739605,20.0613497 L190.507839,20.0613497 L190.507839,20.2317655 C191.019087,20.4873892 191.394001,20.9475119 191.871166,22.00409 L194.819359,28.394683 L194.256987,29.6216769 C193.796864,30.593047 193.251534,31.1042945 192.893661,31.1042945 C192.535787,31.1042945 192.416496,30.6271302 192.177914,30.1329243 C191.973415,29.7068848 191.632584,29.3149284 190.967962,29.3149284 C190.235174,29.3149284 189.604635,29.8432175 189.604635,30.6782549 C189.604635,31.6496251 190.388548,32.1949557 191.394001,32.1949557 L191.394001,32.1949557 Z" fill="#333333"></path>
        </g>
    </g>
</svg>